<?xml version="1.0" encoding="UTF-8" standalone="no"?>
<svg xmlns="http://www.w3.org/2000/svg"
   version="1.0"
   width="10.03"
   height="17.67">
  <g transform="translate(0.4859041,-0.12147603)">
    <g style="fill:#000000;fill-rule:evenodd;stroke:#000000;stroke-width:0;stroke-linecap:butt;stroke-linejoin:round;stroke-miterlimit:10"
       transform="matrix(1.0045484,0,0,1.013574,-530.67414,-70.743307)">
      <g transform="matrix(0.99547219,0,0,0.98660779,528.27135,66.836074)">
        <g style="fill:#000000;fill-rule:evenodd;stroke:#000000;stroke-width:0;stroke-linecap:butt;stroke-linejoin:round;stroke-miterlimit:10"
           transform="matrix(1.0045484,0,0,1.013574,-529.50416,-71.607986)">
          <path style="fill:#000000;stroke:#000000"
             d="m 531.098,74.847 c -0.52,0.098 -0.918,0.457 -1.098,0.953 -0.039,0.16 -0.039,0.199 -0.039,0.418 0,0.301 0.019,0.461 0.16,0.699 0.199,0.399 0.617,0.719 1.094,0.836 0.5,0.141 1.336,0.02 2.293,-0.297 l 0.238,-0.082 -1.176,3.25 -0.78333,3.024389 c 0,0 -0.59605,1.859943 -0.53305,1.902943 0.117,0.078 0.57838,-1.481332 0.71938,-1.481332 0.238,0 -0.95011,4.103701 -0.91111,3.982701 0,-0.039 2.04715,-6.174701 2.72315,-8.424701 l 1.195,-4.125 -0.039,-0.058 c -0.097,-0.121 -0.296,-0.16 -0.418,-0.063 -0.039,0.039 -0.101,0.121 -0.14,0.18 -0.18,0.301 -0.637,0.836 -0.875,1.035 -0.219,0.18 -0.34,0.199 -0.539,0.121 -0.18,-0.098 -0.239,-0.199 -0.36,-0.738 -0.117,-0.535 -0.257,-0.778 -0.558,-0.977 -0.278,-0.179 -0.637,-0.238 -0.953,-0.156 z" />
        </g>
      </g>

      <path style="fill:#000000;stroke:#000000;stroke-width:0"
         d="m 531.04322,74.847 c -0.49495,0.098 -0.87377,0.457 -1.04511,0.953 -0.0371,0.16 -0.0371,0.199 -0.0371,0.418 0,0.301 0.0181,0.461 0.15229,0.699 0.1894,0.399 0.58727,0.719 1.04128,0.836 0.47592,0.141 1.27162,0.02 2.18252,-0.297 l 0.22652,-0.082 c 0.18534,-0.164295 0.0273,0.148966 0.0313,0.170463 l -2.87641,8.083325 1.3,0 2.94649,-10.062651 l 0.0733,-0.06214 -0.0371,-0.058 c -0.0923,-0.121 -0.28175,-0.16 -0.39787,-0.063 -0.0371,0.039 -0.0961,0.121 -0.13325,0.18 -0.17133,0.301 -0.60631,0.836 -0.83282,1.035 -0.20846,0.18 -0.32363,0.199 -0.51304,0.121 -0.17132,-0.098 -0.22749,-0.199 -0.34264,-0.738 -0.11137,-0.535 -0.24462,-0.778 -0.53112,-0.977 -0.2646,-0.179 -0.60631,-0.238 -0.90707,-0.156 z" />
    </g>
  </g>
</svg>
