<?xml version="1.0" encoding="UTF-8" standalone="no"?>
<svg
   xmlns="http://www.w3.org/2000/svg"
   version="1.0"
   width="10.03"
   height="17.67">
  <path
    transform="matrix(1.5045484,0,0,1.513574,0,0)"
    style="fill:#000000;stroke:#000000;stroke-width:0"
    d="m 1.04322,0.5 c -0.49495,0.098 -0.87377,0.457 -1.04511,0.953 -0.0371,0.16 -0.0371,0.199 -0.0371,0.418 0,0.301 0.0181,0.461 0.15229,0.699 0.1894,0.399 0.58727,0.719 1.04128,0.836 0.47592,0.141 1.27162,0.02 2.18252,-0.297 l 0.22652,-0.082 c 0.18534,-0.164295 0.0273,0.148966 0.0313,0.170463 l -3.37641,8.083325 1.5,0 2.94649,-10.062651 l 0.0733,-0.06214 -0.0371,-0.058 c -0.0923,-0.121 -0.28175,-0.16 -0.39787,-0.063 -0.0371,0.039 -0.0961,0.121 -0.13325,0.18 -0.17133,0.301 -0.60631,0.836 -0.83282,1.035 -0.20846,0.18 -0.32363,0.199 -0.51304,0.121 -0.17132,-0.098 -0.22749,-0.199 -0.34264,-0.738 -0.11137,-0.535 -0.24462,-0.778 -0.53112,-0.977 -0.2646,-0.179 -0.60631,-0.238 -0.90707,-0.156 z" />
</svg>
