<?xml version="1.0" encoding="UTF-8" standalone="no"?>
<svg xmlns:svg="http://www.w3.org/2000/svg" xmlns="http://www.w3.org/2000/svg" version="1.0" width="21.600000" height="24.000000">
  <path d="M0.172,0.112 C0.156,0.1,0.148,0.08,0.148,0.064 C0.148,0.032,0.176,0,0.212,0 C0.224,0,0.24,0.004,0.252,0.016 L0.764,0.444 C0.796,0.468,0.808,0.496,0.808,0.524 C0.808,0.62,0.652,0.728,0.536,0.836 C0.476,0.892,0.444,0.972,0.444,1.048 C0.444,1.116,0.464,1.18,0.512,1.236 L0.636,1.336 C0.652,1.348,0.66,1.368,0.66,1.384 C0.66,1.416,0.632,1.448,0.596,1.448 C0.584,1.448,0.568,1.444,0.556,1.432 L0.044,1.004 C0.012,0.98,0,0.952,0,0.924 C0,0.828,0.156,0.72,0.272,0.612 C0.332,0.556,0.364,0.476,0.364,0.4 C0.364,0.332,0.344,0.268,0.296,0.212 z"
        style="fill:#000000;fill-opacity:1.0000000"/>
</svg>
