<?xml version="1.0" encoding="UTF-8" standalone="no"?>
<svg xmlns="http://www.w3.org/2000/svg" height="6.5" width="14.5" version="1.1">
  <path transform="matrix(0.5,0,0,0.5,0,0)"
     d="m 26.067241,11.81924 c -0.625566,0.434218 -1.279163,0.798272 -2.07626,0.984945 -1.0628,0.248894 -2.178294,0.184054 -3.115536,0.01993 C 19.50097,12.47467 18.161245,11.84855 17.059191,11.090049 16.013196,10.471864 15.204871,9.7212959 14.305739,9.1070798 L 12.423388,7.6681608 C 11.730538,7.0248179 10.887464,6.5509211 10.131835,6.1140895 9.2887599,5.6401937 8.5297714,5.3767775 7.6833356,5.0762958 6.7774834,4.8089129 5.896298,4.7851056 5.0151127,4.7612956 3.6899753,4.8990008 2.2112523,5.3795689 1.5901914,7.097855 1.335718,8.0973198 1.5565823,8.8320153 2.0151265,9.4343276 2.5016946,10.106801 3.1732368,10.333151 3.7326649,10.278864 3.942307,10.076321 3.7461026,9.5851997 4.0813054,8.9696326 4.5387001,8.1144547 5.1082099,7.5399205 5.9366976,7.2499923 6.7057678,6.9931614 7.4086998,7.1162574 8.0768811,7.5160248 8.4827247,7.8046014 8.7634717,8.2569445 8.9316434,8.6779043 9.0987532,9.1036164 9.1800803,9.7320153 9.1733585,10.078847 9.135247,10.528934 8.9502748,10.975055 8.6778543,11.38411 8.4054339,11.793166 7.9581199,12.128094 7.4827781,12.392862 6.6823192,12.752948 5.8852202,12.939621 5.0040349,12.915813 4.182268,12.858915 3.4232785,12.595494 2.6396221,12.088501 1.5375684,11.329996 0.82341023,10.269661 0.37831261,8.9736847 -0.00736754,7.6446126 -0.03990077,6.2903804 0.39954985,4.8447979 0.89841496,3.3661168 1.7156774,2.1389495 2.9073927,1.3036139 3.5329591,0.86939807 4.1865543,0.50534297 4.9836533,0.31867114 5.5744701,0.16112621 6.1338942,0.10680698 6.6339078,0.08564652 7.6653178,-0.05999334 8.8895674,0.45890215 9.7640319,0.82954268 10.463602,1.1260551 11.191203,1.4927258 11.97486,1.9997176 c 1.045995,0.6181838 1.854321,1.3687523 2.753452,1.9829697 l 1.755058,1.3686578 c 0.60702,0.5959005 1.691247,1.2576536 2.446875,1.6944863 0.843074,0.4738956 1.570674,0.8405683 2.448499,1.0377923 0.905853,0.2673842 1.668202,0.3573839 2.668222,0.3150003 C 24.606394,8.344343 25.137794,8.2198879 25.700582,7.9921841 26.647905,7.636065 27.157996,7.0946255 27.531305,6.0289697 27.785777,5.0295037 27.620964,4.4351298 27.106368,3.6924972 26.6198,3.0200247 26.007675,2.7605763 25.388829,2.8479597 25.228081,3.3247296 25.270011,3.6891233 25.040189,4.1571922 24.582795,5.0123687 24.013284,5.5869043 23.184797,5.8768324 22.415726,6.1336633 21.712795,6.0105674 21.044612,5.6107998 20.638769,5.3222232 20.355667,4.8346111 20.192093,4.4111334 19.979468,3.860667 19.936495,3.5316359 19.948134,3.047975 19.986245,2.5978881 20.171219,2.1517679 20.44364,1.7427118 20.716061,1.3336556 21.163375,0.99872812 21.698134,0.70086404 22.498594,0.340777 23.295693,0.15410506 24.11746,0.21101255 c 0.821768,0.0568999 1.580755,0.3203211 2.364412,0.82731285 0.49329,0.3256401 0.895772,0.787632 1.210809,1.2125598 0.486568,0.6724712 0.822912,1.5143923 1.071808,2.319248 0.136784,0.524215 0.242176,1.1516876 0.228714,1.8453551 -0.01345,0.6936636 -0.170386,1.2099428 -0.39011,1.9327359 -0.498865,1.47868 -1.462992,2.7018798 -2.535872,3.4710228 z"
     style="fill:#000000;fill-opacity:1;stroke-width:0.71389"/>
</svg>
