<?xml version="1.0" encoding="UTF-8" standalone="no"?>
<svg xmlns="http://www.w3.org/2000/svg" version="1.0" width="21.7" height="31.5">
  <path transform="matrix(0.07,0,0,0.07,17.15,-2.8)"
    d="M-238.81562,470.75666 L-238.81562,48.721998 L-238.81562,39.388187 L-189.96554,39.388187 L-189.96554,461.42285 L-189.96554,470.75666 L-238.81562,470.75666 Z M-165.35686,470.75666 L-165.35686,48.721998 L-165.35686,39.388187 L-149.74687,39.388187 L-149.74687,250.77155 C-142.0337,246.7452,-134.13688,238.50949,-126.42371,225.51536 C-118.5269,212.70424,-111.91561,199.16107,-106.7735,184.70281 C-101.63138,170.24456,-98.876679,159.62963,-98.509386,152.67503 C-96.121976,168.04837,-92.265391,180.31043,-87.123278,189.64424 C-81.797518,198.79504,-76.104464,205.38361,-69.493175,209.40996 C-62.881887,213.25329,-56.454246,215.26647,-49.842957,215.26647 C-33.498383,215.26647,-23.214157,207.94583,-18.806631,193.12154 C-14.399105,178.29726,-12.195343,160.17868,-12.195343,138.76582 C-12.195343,129.06598,-12.37899,120.28122,-12.92993,112.59455 C-13.480871,104.90788,-14.582752,97.038196,-16.602868,89.168512 C-18.439337,81.298829,-21.561335,74.161208,-25.96886,67.938668 C-30.560033,61.716127,-36.436733,57.323746,-43.782609,55.127555 C-50.393898,53.297396,-57.005186,52.382316,-63.432828,52.382316 C-69.309529,52.382316,-74.267995,53.480412,-78.12458,55.493587 C-82.164812,57.506762,-84.368574,60.618032,-84.735868,64.27835 C-83.817634,67.572636,-81.613871,71.41597,-77.757286,75.991367 C-73.900701,80.383749,-71.329644,83.861051,-69.860469,86.057242 C-68.391294,88.253433,-67.656706,91.364703,-67.656706,95.574069 C-67.656706,103.07772,-70.227763,109.30026,-75.369876,114.42471 C-80.511989,119.54915,-87.306925,122.29439,-95.938329,122.29439 C-104.38609,122.29439,-111.36467,119.18312,-116.50678,113.1436 C-121.6489,106.92105,-124.4036,99.600419,-124.77089,91.364703 C-124.0363,80.200733,-119.99607,70.50089,-112.83384,62.448191 C-105.48797,54.578507,-96.48927,48.538982,-85.654103,44.512633 C-74.818936,40.486283,-63.983768,38.473108,-52.964954,38.473108 C-40.476965,38.473108,-28.539917,40.669299,-17.153809,45.06168 C-5.5840543,49.454062,4.7001721,56.042634,13.515223,64.461366 C22.513921,73.063113,29.676151,83.495019,34.818264,95.940101 C39.960377,108.20217,42.531434,122.29439,42.531434,137.85074 C42.531434,159.44662,38.491202,177.38218,30.594385,191.4744 C22.513921,205.74964,12.229695,216.36456,-0.25829416,222.95314 C-12.92993,229.54171,-26.336154,233.20203,-40.476965,233.56806 C-55.168717,232.65298,-67.47306,229.35869,-77.206345,223.6852 L-96.672917,255.16393 L-77.206345,286.45965 C-63.800122,280.96918,-50.577545,278.22394,-37.722262,278.22394 C-21.377688,278.22394,-7.2368764,282.98235,5.0674659,292.13315 C17.188161,301.46696,26.554153,313.36299,32.981795,328.18728 C39.225789,343.01157,42.531434,358.20189,42.531434,373.94125 C42.531434,391.14475,38.674849,407.25015,30.961679,422.07443 C23.248509,436.89872,12.413342,448.61174,-1.5438225,457.57952 C-15.684634,466.36428,-31.661914,470.75666,-49.842957,470.75666 C-70.962351,469.84158,-88.592453,464.90015,-102.73326,455.74936 C-116.87408,446.78158,-123.85266,433.2384,-123.85266,415.48586 C-123.11807,406.88411,-119.99607,400.29554,-114.48667,395.35411 C-108.97726,390.22967,-103.10056,387.66745,-96.672917,387.1184 C-88.959747,387.1184,-81.981165,389.86364,-75.920817,395.35411 C-69.860469,400.66157,-66.738472,407.43316,-66.738472,415.48586 C-66.738472,418.59713,-67.47306,421.52539,-68.942235,424.27063 C-70.41141,426.83285,-72.431526,429.94412,-75.369876,433.60444 C-78.308227,437.08174,-80.328343,439.64396,-81.430224,441.2911 C-82.532105,443.12126,-83.45034,445.13444,-83.817634,447.69666 C-83.817634,450.99095,-81.797518,453.73619,-77.573639,455.93238 C-73.533407,458.12857,-68.207647,459.40968,-61.780006,459.95873 C-41.578847,459.04365,-28.172623,450.4419,-21.377688,434.51952 C-14.766399,418.2311,-11.460755,398.28237,-11.460755,373.94125 C-11.460755,352.89442,-13.848165,334.40982,-18.622984,318.67045 C-23.397804,302.74807,-33.68203,294.87838,-49.842957,294.87838 C-64.167415,294.87838,-75.186229,300.91791,-82.899399,313.36299 C-90.612569,325.62506,-95.571035,340.08331,-97.774798,356.73776 C-100.16221,342.64553,-103.83515,329.10236,-109.16091,316.10823 C-114.48667,302.93108,-120.54701,291.40108,-127.70924,281.51822 C-134.50418,271.81838,-142.0337,263.9487,-149.74687,258.45822 L-149.74687,470.75666 L-165.35686,470.75666 Z"
    style="fill:#000000;fill-opacity:1.0000000"/>
</svg>
