<?xml version="1.0" encoding="UTF-8" standalone="no"?>
<svg xmlns="http://www.w3.org/2000/svg" version="1.0" width="10.03" height="17.67">
<path
    style="fill:#000000;stroke:#000000;stroke-width:0"
    transform="matrix(0.02,0,0,0.02,0,0)"
d="M291 14q0 -8 -5 -10q-2 -5 -10 -5t-10 5q-5 2 -5 10v90h-146q-10 0 -10 10v231h-89q-8 0 -10 5q-5 2 -5 10t5 10q2 5 10 5h89v231q0 10 10 10h146v90q0 8 5 10q2 5 10 5t10 -5q5 -2 5 -10v-90h146q10 0 10 -10v-231h89q8 0 10 -5q5 -2 5 -10t-5 -10q-2 -5 -10 -5h-89
v-231q0 -10 -10 -10h-146v-90zM291 375h66v210h-66v-210zM291 345v-210h66v210h-66zM261 375v210h-66v-210h66zM261 345h-66v-210h66v210z"
/>
</svg>
