<?xml version="1.0" encoding="UTF-8" standalone="no"?>
<svg xmlns="http://www.w3.org/2000/svg" version="1.0" width="10.03" height="17.67">
<path
    style="fill:#000000;stroke:#000000;stroke-width:0"
    transform="matrix(0.02,0,0,0.02,0,0)"
d="M295 14q0 -8 -5 -10q-2 -5 -10 -5t-10 5q-5 2 -5 10v91q-72 8 -111 76q-41 67 -44 164h-90q-8 0 -10 5q-5 2 -5 10t5 10q2 5 10 5h90q3 96 44 163q38 69 111 77v91q0 8 5 10q2 5 10 5t10 -5q5 -2 5 -10v-91q72 -8 111 -76q41 -67 44 -164h90q8 0 10 -5q5 -2 5 -10t-5 -10
q-2 -5 -10 -5h-90q-3 -96 -44 -163q-38 -69 -111 -77v-91zM295 375h80q0 142 -37 186q-15 18 -43 23v-209zM295 345v-209q51 9 65.5 67.5t14.5 141.5h-80zM265 375v209q-51 -9 -65.5 -67.5t-14.5 -141.5h80zM265 345h-80q0 -142 37 -186q15 -18 43 -23v209z"
/>
</svg>
