<?xml version="1.0" encoding="UTF-8" standalone="no"?>
<svg
   xmlns="http://www.w3.org/2000/svg"
   version="1.2"
   width="9.6886654"
   height="15.641341"
   viewBox="0 0 1.556 2.5119999">
  <path
     transform="matrix(0.004,0,0,-0.004,0.108,1.86)"
     d="m 190,41 -1,-66 c 0,-4 -1,-7 -1,-11 0,-22 1,-44 4,-66 44,37 87,82 87,139 0,33 -11,67 -40,67 -30,0 -48,-30 -49,-63 z m -43,-179 -2,106 c -27,-34 -66,-62 -98,-93 -13,-13 -19,-38 -39,-38 -13,0 -23,11 -23,25 l -12,595 c 8,5 18,8 27,8 9,0 19,-3 27,-8 L 20,112 c 17,21 43,34 70,34 20,0 38,-8 52,-21 l -7,332 c 8,5 18,8 27,8 9,0 19,-3 27,-8 l -6,-345 c 24,21 55,34 87,34 53,0 92,-47 92,-101 0,-80 -86,-118 -147,-170 -15,-13 -23,-38 -44,-38 -13,0 -24,11 -24,25 z M 17,-26 v -10 c 0,-23 1,-45 4,-68 39,38 71,86 71,141 0,32 -6,67 -33,67 C 31,104 20,72 19,41 z"
     style="fill:currentColor" />
</svg>
