<?xml version="1.0" encoding="UTF-8" standalone="no"?>
<svg
   xmlns="http://www.w3.org/2000/svg"
   version="1.2"
   width="6.7311921"
   height="6.7247806"
   viewBox="0 0 1.0810297 1.08">
  <path
     transform="matrix(0.004,0,0,-0.004,0.04051484,0.53999996)"
     d="m 152,0 c 23,-23 56,-28 89,-28 6,0 10,-4 10,-10 l 9,-87 c 1,-5 -4,-10 -9,-10 h -1 l -87,9 c -5,1 -10,5 -10,10 0,33 -5,66 -28,89 -23,-23 -28,-56 -28,-89 0,-5 -4,-9 -9,-10 l -88,-9 h -1 c -5,0 -10,5 -9,10 l 9,87 c 0,6 4,10 10,10 33,0 66,5 89,28 C 75,23 42,28 9,28 3,28 -1,32 -1,38 l -9,87 c -1,5 4,10 9,10 h 1 l 88,-9 c 5,-1 9,-5 9,-10 0,-33 5,-66 28,-89 23,23 28,56 28,89 0,5 5,9 10,10 l 87,9 h 1 c 5,0 10,-5 9,-10 l -9,-87 c 0,-6 -4,-10 -10,-10 -33,0 -66,-5 -89,-28 z"
     style="fill:currentColor" />
</svg>
