<?xml version="1.0" encoding="UTF-8" standalone="no"?>
<svg xmlns="http://www.w3.org/2000/svg" version="1.0" width="17" height="12">
    <path
       transform="matrix(0.08397382507100701, 0, 0, 0.06718760808439495,-14.22,-22)"
       d="M 290,457.36218 C 290,471.1693 281.04569,482.36218 270,482.36218 C 258.95431,482.36218 250,471.1693 250,457.36218 C 250,443.55506 258.95431,432.36218 270,432.36218 C 281.04569,432.36218 290,443.55506 290,457.36218 L 290,457.36218 z"
       style="opacity:1;fill:black;fill-opacity:1;fill-rule:evenodd;stroke:none;stroke-width:0.559017;stroke-linecap:round;stroke-linejoin:bevel;stroke-miterlimit:4;stroke-dasharray:none;stroke-opacity:1"/>
    <path
       transform="matrix(0.0353574,0,0,0.0353619,-0.43935,-7.434477)"
       d="M 15,467.36218 C 35,332.36218 130,212.36218 250,212.36218 C 370,212.36218 465,332.36218 485,467.36218 C 486,472.36218 461,472.36218 460,467.36218 C 435,372.36218 370,282.36218 250,282.36218 C 130,282.36218 65,372.36218 40,467.36218 C 39,472.36218 14,472.36218 15,467.36218 z"
       style="fill:black" />
</svg>
