<?xml version="1.0" encoding="utf-8"?>
<svg
  version="1.1"
  id="Layer_1"
  xmlns="http://www.w3.org/2000/svg"
	width="13.872px"
  height="8.863px"
  viewBox="0 0 13.872 8.863">
	<path
		 transform="matrix(1,0,0,1,-191.5,-91.5)"
		 d="M198.122,91.415c3.552,0.032,6.912,1.376,7.168,4.352c0.192,2.177-2.688,4.16-6.24,4.16
		c-3.584-0.032-6.911-1.344-7.2-4.319C191.658,93.398,194.568,91.415,198.122,91.415z M198.984,99.191
		c1.537,0,2.529-1.473,2.369-2.656c-0.353-2.336-1.152-4.225-3.265-4.225c-1.536,0-2.432,1.504-2.239,2.688
		C196.202,97.335,196.874,99.191,198.984,99.191z"/>
</svg>
