<?xml version="1.0" encoding="UTF-8" standalone="no"?>
<svg xmlns="http://www.w3.org/2000/svg" height="6.638" width="18.86" version="1.2">
  <path transform="matrix(6.638,0,0,6.638,0,0)" style="fill:currentColor"
     d="M1.936,0.496L1.624,0.964C1.608,0.988,1.584,1,1.556,1C1.532,1,1.512,0.992,1.496,0.972L1.104,0.496L0.792,0.964C0.776,0.988,0.752,1,0.724,1C0.7,1,0.68,0.992,0.664,0.972L0.268,0.496L0.144,0.684C0.128,0.708,0.108,0.72,0.08,0.72C0.036,0.72,0,0.684,0,0.64C0,0.624,0.004,0.608,0.012,0.596L0.384,0.036C0.4,0.012,0.424,0,0.452,0C0.476,0,0.496,0.008,0.512,0.028L0.904,0.504L1.216,0.036C1.232,0.012,1.256,0,1.284,0C1.308,0,1.328,0.008,1.344,0.028L1.74,0.504L2.048,0.036C2.064,0.012,2.088,0,2.116,0C2.14,0,2.16,0.008,2.176,0.028L2.572,0.504L2.696,0.316C2.712,0.292,2.732,0.28,2.76,0.28C2.804,0.28,2.84,0.316,2.84,0.36C2.84,0.376,2.836,0.392,2.828,0.404L2.456,0.964C2.44,0.988,2.416,1,2.388,1C2.364,1,2.344,0.992,2.328,0.972L1.936,0.496z" />
</svg>
