<?xml version="1.0" encoding="UTF-8" standalone="no"?>
<svg
   xmlns="http://www.w3.org/2000/svg"
   viewBox="0 0 2.008 1"
   height="1.7572987mm"
   width="3.5286558mm"
   version="1.2">
  <path
     style="fill:currentColor"
     d="M 1.864,0.316 C 1.88,0.292 1.9,0.28 1.928,0.28 c 0.044,0 0.08,0.036 0.08,0.08 0,0.016 -0.004,0.032 -0.012,0.044 C 1.872,0.592 1.748,0.776 1.624,0.964 1.608,0.988 1.584,1 1.556,1 1.532,1 1.512,0.992 1.496,0.972 L 1.104,0.496 0.792,0.964 C 0.776,0.988 0.752,1 0.724,1 0.7,1 0.68,0.992 0.664,0.972 L 0.268,0.496 C 0.228,0.56 0.184,0.62 0.144,0.684 0.128,0.708 0.108,0.72 0.08,0.72 0.036,0.72 0,0.684 0,0.64 0,0.624 0.004,0.608 0.012,0.596 0.136,0.408 0.26,0.224 0.384,0.036 0.4,0.012 0.424,0 0.452,0 0.476,0 0.496,0.008 0.512,0.028 L 0.904,0.504 1.216,0.036 C 1.232,0.012 1.256,0 1.284,0 1.308,0 1.328,0.008 1.344,0.028 L 1.74,0.504 C 1.78,0.44 1.824,0.38 1.864,0.316 Z" />
</svg>
