<?xml version="1.0" encoding="UTF-8" standalone="no"?>
<svg
   xmlns="http://www.w3.org/2000/svg"
   viewBox="0 0 2.008 1"
   height="1.7572987mm"
   width="3.5286558mm"
   version="1.2">
  <path style="fill:currentColor"
     d="M1.864,0.316C1.88,0.292,1.9,0.28,1.928,0.28C1.972,0.28,2.008,0.316,2.008,0.36000000000000004C2.008,0.37600000000000006,2.004,0.392,1.996,0.404L1.624,0.964C1.608,0.988,1.584,1,1.556,1C1.532,1,1.512,0.992,1.496,0.972L1.104,0.496L0.792,0.964C0.776,0.988,0.752,1,0.724,1C0.7,1,0.68,0.992,0.664,0.972L0.268,0.496L0.144,0.684C0.128,0.708,0.108,0.72,0.08,0.72C0.036,0.72,0,0.684,0,0.64C0,0.624,0.004,0.608,0.012,0.596L0.384,0.036C0.4,0.012,0.424,0,0.452,0C0.476,0,0.496,0.008,0.512,0.028L0.904,0.504L1.216,0.036C1.232,0.012,1.256,0,1.284,0C1.308,0,1.328,0.008,1.344,0.028L1.74,0.504L1.864,0.316zM0.906,0h0.18v1h-0.18z" />
</svg>
