<?xml version="1.0" encoding="UTF-8" standalone="no"?>
<svg xmlns="http://www.w3.org/2000/svg" version="1.2" width="9.02" height="7.56">
  <path transform="matrix(0.0274,0,0,-0.0274,0,3.801)"
     d="m 220,138 c 56,0 109,-29 109,-91 0,-72 -56,-121 -103,-149 -36,-21 -76,-36 -117,-36 -56,0 -109,29 -109,91 0,72 56,121 103,149 36,21 76,36 117,36 z m 18.892894364010203,-135.21795612090398 c 32.396495528201626,38.60863993319646 54.1713489700694,82.60529614233559 35.173446780718734,98.54642886256175 -22.062079961826555,18.512283158972366 -69.47304657516011,-7.497719624368017 -105.24266022783328,-32.70217833981155 -27.26109187604328,-19.420424035687915 -54.99771248347258,-43.14129832985191 -78.71657528090586,-71.40833828094225 -32.39649552820162,-38.60863993319646 -54.171348970069396,-82.60529614233559 -35.17344678071874,-98.54642886256175 22.062079961826562,-18.512283158972338 69.47304657516011,7.4977196243679884 105.24266022783328,32.70217833981155 27.26109187604328,19.420424035687915 54.99771248347258,43.14129832985191 78.71657528090586,71.40833828094225 z"
     style="fill:currentColor" />
</svg>
