<?xml version="1.0" encoding="UTF-8" standalone="no"?>
<svg xmlns="http://www.w3.org/2000/svg" version="1.2" width="12.5" height="17.5" viewBox="0 0 2 2.8">
  <path transform="matrix(0.005,0,0,-0.005,0,2.625)"
    d="M330 162q0 -81 -52 -124q-47 -38 -100 -38h-4q-68 1 -111 45q-44 47 -44 117q0 31 31 62q25 25 48 33q-65 38 -65 116q0 59 45 97q40 34 97 34q56 0 96 -31q44 -35 44 -88q0 -17 -6 -33.5t-16.5 -31t-24 -26t-28.5 -17.5q8 -4 19.5 -12t27.5 -22q43 -42 43 -81zM271 376
q-2 46 -27.5 74t-68.5 28q-35 0 -59 -25q-23 -23 -23 -52q0 -21 62 -62q14 -11 29.5 -22t31.5 -22q22 10 38 32q17 26 17 46v3zM61 152q2 -49 31 -84q31 -40 82 -40q47 0 72 25q21 19 21 46q0 19 -24 46q-10 11 -21.5 21t-25.5 18q-17 14 -35.5 27t-38.5 27q-61 -30 -61 -81
v-5z"
     style="fill:currentColor" />
</svg>
