<?xml version="1.0" encoding="UTF-8" standalone="no"?>
<svg
   xmlns="http://www.w3.org/2000/svg"
   version="1.2"
   width="25"
   height="35"
   viewBox="0 0 4 5.6">
  <path transform="matrix(0.01,0,0,-0.01,0,5.25)"
    d="M186 485q-59 -32 -59 -167q0 -70 16 -77q34 46 98 46q51 0 81 -45q27 -41 27 -84v-5q-2 -71 -44 -111q-40 -37 -100 -37h-4q-83 1 -136 83q-44 68 -44 165v7q2 95 57 170q57 78 131 78h3q69 -1 101 -44q22 -28 22 -69q0 -25 -17 -43t-38 -20l-11 -1q-51 0 -51 64
q0 30 22 49q10 9 21 11t11 7q0 6 -16 16q-23 14 -44 14q-16 0 -26 -7zM207 261q-62 0 -62 -108q0 -64 18.5 -95t41.5 -31t42 30.5t19 90.5q0 22 -3 42.5t-10 36t-18.5 25t-27.5 9.5z" id="path3217"
     style="fill:currentColor" />
</svg>
