<?xml version="1.0" encoding="UTF-8" standalone="no"?>
<svg xmlns="http://www.w3.org/2000/svg" version="1.2" width="12.5" height="17.5">
  <path transform="matrix(0.03125,0,0,-0.03125,0,16.40625)"
    d="M167 492q23 0 55.5 4.5t75.5 12.5q-5 -56 -35 -79q-22 -16 -81 -16q-17 0 -34.5 1.5t-34.5 3.5q-32 4 -36 9v-141q41 44 93 44q69 0 111 -39q40 -38 44 -96v-11q0 -71 -52 -123q-56 -59 -130 -59q-7 0 -13 0.5t-12 1.5q-93 16 -93 111q0 59 59 59q61 0 61 -56
q0 -32 -17 -46q-11 -8 -31 -10q-17 -2 -17 -5q0 -2 4 -6q24 -27 59 -27l11 1q38 4 64 41q28 40 29 113v5q0 41 -23 76q-26 39 -68 39q-52 0 -79 -45h-31v254q32 -8 62.5 -12t58.5 -5z"
     style="fill:currentColor" />
</svg>
