<?xml version="1.0" encoding="UTF-8" standalone="no"?>
<svg xmlns="http://www.w3.org/2000/svg" version="1.2" width="12.5" height="17.5">
  <path transform="matrix(0.03125,0,0,-0.03125,0,16.40625)"
    d="M190 207q-46 -46 -67 -124l-6 -38t-7 -39h123l-1.5 17t-1.5 34q0 94 32 150q23 42 36.5 64t16.5 29q14 29 22 58t10 59q1 15 1.5 27t0.5 23t-0.5 21.5t-1.5 21.5v2h-20l-8 -24q-10 -18 -33 -20h-4q-29 0 -55 20q-31 22 -65 24q-23 0 -58 -23t-46 -23q-14 0 -24 31h-17
v-107h19l6 12t7 12q13 17 39 19q22 0 65 -25q42 -24 87 -26h3q36 0 85 31q-1 -7 -2.5 -16.5t-4.5 -20.5q-14 -58 -131 -169z"
     style="fill:currentColor" />
</svg>
