<?xml version="1.0" encoding="UTF-8" standalone="no"?>
<svg xmlns="http://www.w3.org/2000/svg" version="1.2" width="12.5" height="17.5">
  <path transform="matrix(0.03125,0,0,-0.03125,0,16.40625)"
    d="M92 435q-8 0 -8 6q0 8 14 16q16 10 39 12h17q116 0 116 -104q0 -34 -98 -129q-57 -55 -90 -93t-44 -60q-14 -28 -16.5 -43t-5.5 -31h21l9 31q13 24 62 26q30 0 80 -32q49 -33 89 -33h4q96 2 100 134h-13q0 -65 -55 -65q-13 0 -32 18q-13 11 -23.5 19t-18.5 12
q-30 15 -60 15q-40 0 -90 -29q6 8 12 17t11 17q11 16 26 31.5t34 29.5q29 17 58 33.5t58 32.5q72 46 72 103q0 66 -61 103q-53 33 -125 33q-56 0 -103 -38q-45 -38 -45 -91q0 -27 19.5 -46t46.5 -19q26 0 45.5 19t19.5 46q0 59 -65 59z"
     style="fill:currentColor" />
</svg>
