<?xml version="1.0" encoding="UTF-8" standalone="no"?>
<svg xmlns="http://www.w3.org/2000/svg" version="1.2" width="12.5" height="17.5" viewBox="0 0 2 2.8">
  <path transform="matrix(0.005,0,0,-0.005,0,2.625)"
    d="M118 262h1q6 0 21 4q100 36 102 98v4q0 46 -33 79q-31 31 -64 31h-3q-15 -1 -28.5 -5t-26.5 -11q-22 -13 -22 -23q0 -4 8 -4q55 0 56 -52v-3q0 -50 -59 -50q-55 0 -55 61q0 116 158 116h8q58 -1 103 -43q46 -42 48 -102v-6q0 -41 -21 -65q-17 -20 -58 -38q79 -33 79 -104
v-3q-2 -60 -48 -102q-46 -43 -103 -43q-166 0 -166 116q0 61 55 61q59 0 59 -50v-3q-1 -52 -56 -52q-8 0 -8 -4q0 -10 22 -23q13 -7 26.5 -11t28.5 -5h3q33 0 64 31q33 33 33 79v4q-2 62 -102 98q-3 1 -8.5 2t-13.5 2v16z"
     style="fill:currentColor" />
</svg>
