<?xml version="1.0" encoding="UTF-8" standalone="no"?>
<svg
   xmlns="http://www.w3.org/2000/svg"
   version="1.2"
   width="25"
   height="35"
   viewBox="0 0 4 5.6">
  <path transform="matrix(0.01,0,0,-0.01,0,5.25)"
    d="M155 277q-20 -30 -43 -64t-48 -72h134v162l112 94v-256h48v-22h-48q-1 -1 -1 -9v-9q0 -9 1 -12q0 -14 0.5 -23t3.5 -16t8.5 -11.5t15.5 -9.5q13 -7 20 -7v-22h-210v22q10 0 23 7q20 10 22 19q2 10 3.5 25t1.5 36v10h-175v22q89 65 122 215q8 37 14 74.5t12 75.5h125
    q-74 -128 -75 -129q-20 -33 -36.5 -58t-29.5 -42z" id="path3217"
     style="fill:currentColor" />
</svg>
