<?xml version="1.0" encoding="UTF-8" standalone="no"?>
<svg xmlns="http://www.w3.org/2000/svg" version="1.0" width="10.03" height="17.67">
<path
    style="fill:#000000;stroke:#000000;stroke-width:0"
    transform="matrix(0.02,0,0,0.02,0,0)"
d="M401 435q0 13 9 22t22 9t22 -9t9 -22t-9 -22t-22 -9t-22 9t-9 22zM49 333q0 13 9 22t22 9t22 -9t9 -22t-9 -22t-22 -9t-22 9t-9 22zM177 620q0 47 41 65q-6 23 -26 37.5t-47 14.5t-46 -22.5t-19 -54.5q0 -123 176 -224l195 332h61l-209 -357q95 -52 152 -112t57 -133.5
t-43.5 -119.5t-103 -46t-103.5 45q-42 45 -42 106t55 61q29 0 44.5 -19t15.5 -45q0 -47 -41 -65q6 -23 26 -37.5t47 -14.5t46 22.5t19 54.5q0 123 -176 224l-195 -332h-61l209 357q-95 52 -152 112t-57 133.5t43 119.5q44 46 103.5 46t103.5 -44q42 -45 42 -106.5t-55 -61.5
q-30 0 -45 19t-15 45z" />
</svg>
