<?xml version="1.0" encoding="UTF-8" standalone="no"?>
<svg xmlns="http://www.w3.org/2000/svg" version="1.2" width="13.787045" height="26.301365" viewBox="0 0 2.2142 4.224">
  <path transform="matrix(0.004,0,0,-0.004,0,0.72399993)"
     d="m 220,138 c 56,0 109,-29 109,-91 0,-72 -56,-121 -103,-149 -36,-21 -76,-36 -117,-36 -56,0 -109,29 -109,91 0,72 56,121 103,149 36,21 76,36 117,36 z"
     style="fill:currentColor" />
  <path
     transform="matrix(0.004,0,0,-0.004,1.7662,0.22399993)"
     d="M 0,0 C 0,31 25,56 56,56 87,56 112,31 112,0 112,-31 87,-56 56,-56 25,-56 0,-31 0,0 z"
     style="fill:currentColor" />
  <path
     transform="matrix(0.004,0,0,-0.004,0.13,4.184)"
     d="M 0,0 H -16 V 250 H 0 c 98,58 227,148 227,259 0,57 -16,112 -41,163 -3,16 10,27 23,27 7,0 15,-3 20,-11 25,-56 40,-117 40,-179 C 269,305 0,204 0,0 z"
     style="fill:currentColor"/>
  <rect
     transform="translate(0.065,1.724)"
     x="-0.064999998"
     y="-0.81220001"
     width="0.13"
     height="3.3122001"
     ry="0.039999999"
     id="rect3223"
     style="fill:currentColor" />
</svg>
