<?xml version="1.0" encoding="UTF-8" standalone="no"?>
<svg xmlns="http://www.w3.org/2000/svg" version="1.2" width="3.2756047mm" height="11.710638mm" viewBox="0 0 1.864 6.6639997">
  <rect
     transform="translate(0,3.3319997)"
     x="0"
     y="-2"
     width="0.60000002"
     height="4"
     ry="0.0000"
     style="fill:currentColor" />
  <path
     transform="matrix(0.004,0,0,-0.004,0,1.3319997)"
     d="m 450,333 c 9,0 16,-8 16,-16 0,-3 -1,-6 -3,-9 C 364,164 248,-56 75,-56 l -75,0 0,87 c 0,14 11,25 25,25 l 50,0 c 159,0 271,136 362,270 3,4 8,7 13,7 z"
     style="fill:currentColor" />
  <path
     transform="matrix(0.004,0,0,-0.004,0,5.3319997)"
     d="m 466,-317 c 0,-8 -7,-16 -16,-16 -5,0 -10,3 -13,7 -91,134 -203,270 -362,270 l -50,0 C 11,-56 0,-45 0,-31 l 0,87 75,0 c 173,0 289,-220 388,-364 2,-3 3,-6 3,-9 z"
     style="fill:currentColor" />
  <path
     transform="matrix(0.004,0,0,-0.004,1.39,2.8319997)"
     d="M 0,0 C 0,31 25,56 56,56 87,56 112,31 112,0 112,-31 87,-56 56,-56 25,-56 0,-31 0,0 Z"
     style="fill:currentColor" />
  <path
     transform="matrix(0.004,0,0,-0.004,1.39,3.8319997)"
     d="M 0,0 C 0,31 25,56 56,56 87,56 112,31 112,0 112,-31 87,-56 56,-56 25,-56 0,-31 0,0 Z"
     style="fill:currentColor" />
  <rect
     transform="translate(0.9,3.3319997)"
     x="0"
     y="-2"
     width="0.19"
     height="4"
     ry="0.0000"
     style="fill:currentColor" />
  <path
     transform="matrix(0.004,0,0,-0.004,1.39,4.8319997)"
     d="M 0,0 C 0,31 25,56 56,56 87,56 112,31 112,0 112,-31 87,-56 56,-56 25,-56 0,-31 0,0 Z"
     style="fill:currentColor" />
  <path
     transform="matrix(0.004,0,0,-0.004,1.39,1.8319997)"
     d="M 0,0 C 0,31 25,56 56,56 87,56 112,31 112,0 112,-31 87,-56 56,-56 25,-56 0,-31 0,0 Z"
     style="fill:currentColor" />
</svg>
